<?xml version="1.0" encoding="UTF-8"?>
<svg width="43px" height="21px" viewBox="0 0 43 21" version="1.1" xmlns="http://www.w3.org/2000/svg" xmlns:xlink="http://www.w3.org/1999/xlink">
    <title>playground-gamepad</title>
    <g id="-📊-Dashboard" stroke="none" stroke-width="1" fill="none" fill-rule="evenodd">
        <path d="M31.8382327,20.9375049 C37.5358376,20.9375049 42.1507081,16.3226973 42.1507081,10.6250295 C42.1507081,4.92736166 37.5423206,0.312554091 31.8446528,0.312554091 L11.219702,0.312554091 C5.52203413,0.312554091 0.907226562,4.92736166 0.907226562,10.6250295 C0.907226562,16.3226973 5.52203413,20.9375049 11.219702,20.9375049 C14.1071825,20.9375049 16.7111077,19.7515451 18.5802439,17.8437623 L24.4776908,17.8437623 C26.3468269,19.7515451 28.9571723,20.9375049 31.8382327,20.9375049 Z M12.5087614,16.8125148 L9.93064255,16.8125148 C9.50527812,16.8125148 9.15720689,16.4644435 9.15720689,16.0390791 L9.15720689,12.6875246 L5.80565238,12.6875246 C5.38028795,12.6875246 5.03221673,12.3394534 5.03221673,11.9140889 L5.03221673,9.33597008 C5.03221673,8.91060564 5.38028795,8.56253442 5.80565238,8.56253442 L9.15720689,8.56253442 L9.15720689,5.21097991 C9.15720689,4.78561548 9.50527812,4.43754426 9.93064255,4.43754426 L12.5087614,4.43754426 C12.9341258,4.43754426 13.2821971,4.78561548 13.2821971,5.21097991 L13.2821971,8.56253442 L16.6337516,8.56253442 C17.059116,8.56253442 17.4071872,8.91060564 17.4071872,9.33597008 L17.4071872,11.9140889 C17.4071872,12.3394534 17.059116,12.6875246 16.6337516,12.6875246 L13.2821971,12.6875246 L13.2821971,16.0390791 C13.2821971,16.4644435 12.9341258,16.8125148 12.5087614,16.8125148 Z M34.4227717,11.1406533 C32.7147679,11.1406533 31.329029,9.75491439 31.329029,8.04691065 C31.329029,6.33890691 32.7147679,4.95316803 34.4227717,4.95316803 C36.1307754,4.95316803 37.5165143,6.33890691 37.5165143,8.04691065 C37.5165143,9.75491439 36.1307754,11.1406533 34.4227717,11.1406533 Z M29.2665339,16.296891 C27.5585302,16.296891 26.1727913,14.9111521 26.1727913,13.2031484 C26.1727913,11.4951446 27.5585302,10.1094057 29.2665339,10.1094057 C30.9745377,10.1094057 32.3602766,11.4951446 32.3602766,13.2031484 C32.3602766,14.9111521 30.9745377,16.296891 29.2665339,16.296891 Z" id="playground-gamepad" fill="#FFFFFF" fill-rule="nonzero"></path>
    </g>
</svg>