<?xml version="1.0" encoding="UTF-8"?>
<svg width="32px" height="33px" viewBox="0 0 32 33" version="1.1" xmlns="http://www.w3.org/2000/svg" xmlns:xlink="http://www.w3.org/1999/xlink">
    <title>primer-power</title>
    <g id="-📊-Dashboard" stroke="none" stroke-width="1" fill="none" fill-rule="evenodd">
        <path d="M17.0634348,18.6875246 C17.9206467,18.6875246 18.6103061,17.9978652 18.6103061,17.1406533 L18.6103061,1.67194016 C18.6103061,0.814728225 17.9206467,0.125068843 17.0634348,0.125068843 L15.0009397,0.125068843 C14.1437278,0.125068843 13.4540684,0.814728225 13.4540684,1.67194016 L13.4540684,17.1406533 C13.4540684,17.9978652 14.1437278,18.6875246 15.0009397,18.6875246 L17.0634348,18.6875246 Z M16.0644137,32.6094053 C24.8751475,32.5900431 32.0165241,25.4421834 32.0165241,16.6250295 C32.0165241,11.2561096 29.3739523,6.51233313 25.3134151,3.61194942 C24.5657858,3.07700234 23.5216351,3.31549092 23.0704643,4.11473295 L22.0521199,5.92583626 C21.6718222,6.59617234 21.8458578,7.45338427 22.4710642,7.91745825 C25.2682854,9.99279358 26.8409631,13.2154421 26.8602864,16.5541564 C26.898933,22.6707056 21.9360542,27.4531287 16.0321872,27.4531287 C10.0058344,27.4531287 5.19766792,22.567606 5.20408804,16.6186094 C5.20408804,13.0543097 6.91209178,9.9090173 9.58689009,7.92387837 C10.2120965,7.45980439 10.3925522,6.60259246 10.0122545,5.92583626 L8.99391017,4.11473295 C8.54273937,3.3090708 7.49216852,3.0834854 6.73805617,3.61843248 C2.68400204,6.52523631 0.041430213,11.281853 0.0478386611,16.6508359 C0.0607535159,25.4550866 7.26658312,32.6286897 16.0644137,32.6094053 Z" id="primer-power" fill="#FFFFFF" fill-rule="nonzero"></path>
    </g>
</svg>