<?xml version="1.0" encoding="UTF-8"?>
<svg width="25px" height="34px" viewBox="0 0 25 34" version="1.1" xmlns="http://www.w3.org/2000/svg" xmlns:xlink="http://www.w3.org/1999/xlink">
    <title>spec-file</title>
    <g id="-📊-Dashboard" stroke="none" stroke-width="1" fill="none" fill-rule="evenodd">
        <path d="M24.874941,8.37504917 L24.874941,7.98191123 C24.874941,7.57580715 24.7138086,7.1826692 24.4237702,6.89263083 L18.1137991,0.576239643 C17.8237608,0.286201272 17.4306228,0.125068843 17.0180986,0.125068843 L16.6249607,0.125068843 L16.6249607,8.37504917 L24.874941,8.37504917 Z M23.3280697,33.1249902 C24.1852816,33.1249902 24.874941,32.4353308 24.874941,31.5781189 L24.874941,10.4375443 L16.1093369,10.4375443 C15.2585451,10.4375443 14.5624656,9.74146475 14.5624656,8.89067294 L14.5624656,0.125068843 L1.67187131,0.125068843 C0.814659382,0.125068843 0.125,0.814728225 0.125,1.67194016 L0.125,31.5781189 C0.125,32.4353308 0.814659382,33.1249902 1.67187131,33.1249902 L23.3280697,33.1249902 Z M9.92185164,6.31255409 L4.76561394,6.31255409 C4.48073684,6.31255409 4.24999017,6.08180742 4.24999017,5.79693032 L4.24999017,4.76568278 C4.24999017,4.48080568 4.48073684,4.25005901 4.76561394,4.25005901 L9.92185164,4.25005901 C10.2067287,4.25005901 10.4374754,4.48080568 10.4374754,4.76568278 L10.4374754,5.79693032 C10.4374754,6.08180742 10.2067287,6.31255409 9.92185164,6.31255409 Z M9.92185164,10.4375443 L4.76561394,10.4375443 C4.48073684,10.4375443 4.24999017,10.2067976 4.24999017,9.92192049 L4.24999017,8.89067294 C4.24999017,8.60579585 4.48073684,8.37504917 4.76561394,8.37504917 L9.92185164,8.37504917 C10.2067287,8.37504917 10.4374754,8.60579585 10.4374754,8.89067294 L10.4374754,9.92192049 C10.4374754,10.2067976 10.2067287,10.4375443 9.92185164,10.4375443 Z M19.7187033,22.8125148 L5.28123771,22.8125148 C4.71148351,22.8125148 4.24999017,22.3510214 4.24999017,21.7812672 L4.24999017,15.593782 C4.24999017,15.0240278 4.71148351,14.5625344 5.28123771,14.5625344 L19.7187033,14.5625344 C20.2884575,14.5625344 20.7499508,15.0240278 20.7499508,15.593782 L20.7499508,21.7812672 C20.7499508,22.3510214 20.2884575,22.8125148 19.7187033,22.8125148 Z M18.6874557,20.7500197 L18.6874557,16.6250295 L6.31248525,16.6250295 L6.31248525,20.7500197 L18.6874557,20.7500197 Z M20.2343271,29 L15.0780893,29 C14.7932123,29 14.5624656,28.7692533 14.5624656,28.4843762 L14.5624656,27.4531287 C14.5624656,27.1682516 14.7932123,26.9375049 15.0780893,26.9375049 L20.2343271,26.9375049 C20.5192042,26.9375049 20.7499508,27.1682516 20.7499508,27.4531287 L20.7499508,28.4843762 C20.7499508,28.7692533 20.5192042,29 20.2343271,29 Z" id="spec-file" fill="#FFFFFF" fill-rule="nonzero"></path>
    </g>
</svg>