<?xml version="1.0" standalone="no"?>
<!DOCTYPE svg PUBLIC "-//W3C//DTD SVG 20010904//EN"
 "http://www.w3.org/TR/2001/REC-SVG-20010904/DTD/svg10.dtd">
<svg version="1.0" xmlns="http://www.w3.org/2000/svg"
 width="1440.000000pt" height="1440.000000pt" viewBox="0 0 1440.000000 1440.000000"
 preserveAspectRatio="xMidYMid meet">
<metadata>
Created by potrace 1.11, written by Peter Selinger 2001-2013
</metadata>
<g transform="translate(0.000000,1440.000000) scale(0.100000,-0.100000)"
fill="#000000" stroke="none">
<path d="M7235 11221 c-11 -5 -35 -25 -53 -45 -18 -20 -43 -36 -55 -37 -30 -1
-43 -3 -427 -63 -85 -14 -175 -27 -200 -30 -25 -3 -72 -11 -105 -16 -33 -6
-78 -13 -100 -16 -22 -3 -78 -12 -125 -19 -47 -8 -102 -17 -122 -19 -21 -3
-54 -8 -73 -12 -28 -5 -40 -1 -66 20 -17 14 -36 26 -42 27 -7 0 -23 2 -36 5
-66 12 -140 -47 -148 -119 -11 -92 56 -163 145 -155 l47 4 120 -162 c83 -113
122 -173 126 -198 13 -81 67 -124 141 -112 38 6 39 6 78 -56 21 -35 40 -67 40
-73 1 -9 -57 -26 -135 -40 -16 -3 -213 -42 -437 -86 -396 -77 -409 -79 -439
-63 -38 19 -106 15 -144 -10 -51 -33 -73 -123 -44 -178 15 -28 60 -68 77 -68
22 0 13 -57 -14 -90 -17 -19 -28 -47 -31 -74 -5 -39 -2 -48 30 -82 34 -37 38
-39 99 -39 59 0 69 -4 143 -50 44 -27 88 -54 98 -60 99 -56 346 -220 340 -226
-4 -3 -69 -25 -143 -47 -74 -22 -163 -49 -197 -60 -34 -11 -67 -16 -74 -11 -7
4 -34 6 -59 5 -84 -4 -133 -54 -134 -136 -1 -80 62 -140 144 -140 29 0 44 -8
78 -43 29 -30 42 -51 42 -71 0 -73 65 -132 136 -124 l33 4 121 -208 c104 -178
122 -214 124 -258 4 -45 2 -50 -18 -51 -11 0 -28 -2 -37 -4 -8 -1 -60 -6 -115
-9 -54 -3 -117 -8 -139 -11 -22 -3 -74 -7 -115 -10 -131 -8 -224 -15 -265 -20
-22 -2 -87 -7 -145 -11 -58 -3 -108 -8 -111 -10 -3 -2 -16 11 -28 27 -41 55
-112 73 -173 43 -52 -25 -73 -60 -73 -124 0 -88 58 -142 150 -139 40 1 167
-43 535 -186 19 -7 91 -35 160 -60 69 -26 135 -51 147 -55 12 -5 24 -21 28
-39 14 -63 90 -105 153 -83 27 9 33 4 141 -100 62 -61 110 -116 108 -122 -3
-7 -29 -20 -59 -28 -29 -9 -113 -35 -186 -58 l-133 -43 -22 20 c-77 71 -186
52 -227 -38 -32 -73 -5 -145 67 -180 62 -30 143 -10 172 44 11 21 18 24 40 17
31 -10 337 -126 366 -140 11 -5 121 -47 245 -95 170 -64 232 -93 253 -115 15
-16 35 -33 45 -39 16 -9 17 -44 18 -480 l1 -470 -139 -138 c-97 -97 -138 -145
-138 -161 0 -14 -8 -26 -22 -31 -35 -13 -69 -68 -73 -114 -4 -50 18 -97 56
-123 24 -15 29 -26 29 -58 0 -35 -7 -46 -55 -93 l-54 -53 -441 -1 c-242 -1
-444 -2 -450 -3 -5 0 -35 -26 -66 -56 l-56 -54 -1019 -1 -1019 0 -82 -82 c-63
-63 -90 -83 -110 -83 -30 0 -58 -32 -58 -66 0 -24 42 -64 63 -60 54 10 76 40
64 85 -3 14 15 38 69 90 l73 71 987 0 987 0 -56 -57 -57 -58 -815 0 -815 0
-138 -138 c-124 -124 -141 -138 -165 -132 -14 4 -41 2 -60 -4 -120 -40 -140
-187 -34 -251 97 -60 216 16 205 130 l-5 48 121 121 121 121 190 0 190 0 -84
-84 c-74 -74 -88 -84 -112 -79 -55 11 -93 -72 -51 -110 40 -36 105 -7 108 49
0 16 33 56 101 124 l101 100 393 0 394 0 -125 -125 -125 -125 -175 0 -175 0
-120 -120 c-93 -93 -126 -120 -146 -120 -61 0 -93 -67 -54 -110 39 -43 106
-12 109 50 1 24 23 52 115 144 l113 113 177 0 176 1 145 146 145 146 166 0
165 0 137 137 137 138 115 0 c63 0 115 -2 115 -5 0 -3 -102 -108 -228 -233
l-227 -227 -113 0 -113 0 -240 -241 c-162 -161 -246 -239 -256 -235 -34 13
-84 -34 -76 -73 6 -34 11 -41 39 -51 47 -18 96 25 86 77 -1 6 102 116 230 244
l233 234 113 1 114 1 254 254 254 254 135 0 c74 0 135 -2 135 -4 0 -3 -46 -52
-102 -108 -86 -87 -108 -103 -134 -103 -58 0 -86 -68 -44 -110 39 -39 100 -11
105 49 2 27 22 53 126 154 l123 121 127 1 c71 0 130 3 133 5 3 3 41 41 86 84
l80 80 0 58 c0 52 3 61 31 85 17 16 36 37 42 48 28 52 12 131 -35 170 l-31 26
142 143 141 143 0 495 c0 488 0 496 21 522 30 38 36 97 13 135 -20 33 -68 61
-106 61 -17 0 -70 47 -198 175 l-175 175 0 59 c0 49 -4 64 -25 86 -22 23 -25
35 -25 108 -1 75 1 84 24 109 l26 27 212 -91 c207 -88 211 -91 217 -123 4 -21
20 -46 43 -66 l37 -32 1 -886 1 -886 -47 -50 c-27 -27 -50 -62 -53 -77 -2 -15
-21 -43 -40 -63 -38 -37 -43 -57 -37 -137 0 -9 16 -33 34 -52 55 -58 50 -67
-126 -244 -142 -143 -157 -162 -157 -193 0 -31 -14 -49 -143 -177 l-144 -143
-99 -2 -99 -2 -323 -323 c-265 -264 -327 -322 -350 -322 -35 0 -49 -9 -60 -40
-20 -53 29 -100 82 -80 30 11 37 22 38 61 1 26 46 75 318 347 l317 317 94 -1
94 -2 138 137 138 136 -2 -50 -2 -50 -161 -163 -161 -162 -1 -71 -1 -70 -152
-153 c-119 -119 -159 -154 -179 -154 -16 0 -35 -10 -48 -26 -20 -22 -22 -30
-12 -57 26 -74 130 -49 123 31 -2 19 25 52 129 157 72 73 133 133 136 133 3 0
5 -77 4 -171 l-1 -171 -77 -77 c-72 -73 -78 -76 -115 -73 -126 12 -197 -144
-107 -234 63 -63 163 -51 214 26 19 28 23 46 20 87 l-3 52 88 89 87 89 0 276
c0 185 4 278 11 282 6 4 53 -36 105 -88 l94 -96 0 -63 0 -63 80 -80 c67 -66
80 -85 80 -112 0 -30 20 -61 41 -64 5 -1 15 -2 22 -3 37 -6 71 38 61 80 -7 26
-59 58 -77 47 -4 -3 -44 30 -87 73 l-80 78 0 65 0 64 -100 101 -99 101 136
137 137 137 1 116 0 115 85 85 c46 46 86 82 88 80 4 -4 6 -109 3 -158 -1 -10
-15 -31 -33 -47 l-32 -30 0 -117 -1 -118 72 -73 c52 -53 71 -79 68 -94 -15
-76 98 -100 124 -26 9 27 7 33 -18 58 -20 20 -35 27 -49 23 -17 -4 -36 10 -87
60 l-65 65 0 101 0 101 33 33 33 32 1 123 0 124 47 47 c41 41 46 52 46 91 0
41 4 47 33 61 87 43 92 185 7 235 l-29 18 49 52 50 53 0 925 c0 522 4 926 9
928 5 2 18 19 30 38 l21 35 0 -945 0 -945 50 -52 c63 -63 68 -83 28 -113 -33
-24 -58 -74 -58 -116 0 -35 37 -99 67 -115 19 -10 24 -20 23 -49 -3 -65 0 -77
33 -115 26 -31 32 -47 33 -89 1 -50 1 -52 -74 -129 -57 -58 -80 -76 -94 -71
-23 7 -64 -18 -70 -44 -3 -11 1 -34 9 -51 13 -25 21 -31 49 -31 48 0 70 26 65
80 -1 8 35 51 79 94 76 76 80 82 80 124 l0 45 20 -26 c17 -21 20 -40 20 -117
l0 -93 97 -99 97 -98 -112 -113 -112 -112 0 -73 0 -72 -61 -62 c-50 -52 -65
-62 -89 -60 -35 4 -70 -27 -70 -63 0 -29 36 -65 65 -65 30 0 65 36 65 68 0 19
17 44 65 92 l65 65 1 75 1 75 106 108 106 108 90 -90 90 -90 2 -103 c2 -57 6
-138 10 -182 l6 -78 -105 -107 -105 -106 0 -73 c1 -61 -3 -77 -21 -96 -41 -43
-15 -106 44 -106 61 0 84 62 42 111 -18 22 -22 38 -21 88 l1 61 97 97 c54 54
101 104 105 113 4 8 6 35 5 60 l-4 44 160 -159 160 -160 0 -78 0 -79 62 -64
c58 -61 62 -68 59 -107 -4 -75 67 -147 145 -147 64 0 134 75 134 145 0 39 -32
90 -72 116 -26 16 -44 19 -84 15 -50 -4 -53 -3 -95 40 l-43 44 -1 80 c-1 79
-1 80 -40 122 -22 22 -55 55 -73 71 -18 16 -30 32 -27 35 3 3 42 6 86 6 l81 1
49 -52 c36 -38 49 -60 49 -81 0 -29 23 -58 50 -63 47 -9 87 40 70 86 -10 26
-54 50 -71 39 -6 -3 -39 21 -73 55 l-63 60 -114 -3 -114 -2 -92 91 -93 92 0
110 0 109 -70 70 c-38 38 -70 72 -70 75 0 4 48 7 106 8 l105 1 193 -193 192
-193 108 -1 107 -1 209 -208 c181 -179 209 -211 203 -232 -13 -54 79 -93 113
-47 34 46 3 105 -56 105 -20 0 -73 48 -239 214 l-213 214 -102 -2 -101 -2
-185 181 c-101 99 -188 186 -193 193 -6 9 -48 12 -155 12 l-147 0 -104 105
-105 106 0 97 -1 97 -75 74 c-65 64 -75 79 -76 111 -1 30 4 40 27 56 78 52 76
176 -4 229 -18 12 -26 27 -30 61 -4 38 -13 53 -53 92 l-49 47 -1 910 c0 501 2
916 4 923 3 8 34 12 107 12 94 0 104 -2 110 -20 3 -11 19 -31 35 -46 28 -27
28 -28 27 -148 0 -79 -5 -129 -14 -146 -7 -14 -13 -39 -13 -56 0 -42 -71 -114
-113 -114 -103 0 -160 -105 -104 -190 23 -34 23 -42 26 -300 1 -146 3 -364 5
-486 l2 -221 147 -148 147 -147 -38 -38 c-23 -21 -42 -51 -45 -70 -10 -48 12
-108 50 -139 31 -24 33 -30 33 -85 l0 -58 82 -84 82 -84 160 0 161 0 98 -98
c96 -97 97 -98 97 -147 0 -49 2 -52 75 -124 46 -46 75 -83 75 -96 0 -11 7 -31
16 -43 12 -18 24 -22 52 -20 68 6 85 92 22 118 -16 7 -37 9 -46 6 -12 -4 -36
14 -83 61 -62 64 -66 71 -69 118 -2 48 -5 53 -89 137 l-88 88 140 0 139 0 191
-190 c161 -160 196 -190 221 -190 24 0 59 -30 223 -195 107 -107 197 -196 200
-196 3 -1 51 -2 107 -3 l100 -2 91 -91 c67 -66 90 -96 87 -110 -7 -25 32 -73
60 -73 63 0 93 82 42 116 -14 8 -35 14 -47 12 -16 -2 -46 21 -120 95 l-98 97
-103 0 -103 0 -175 175 -175 175 309 0 309 0 339 -340 c243 -243 338 -344 334
-356 -6 -16 9 -54 28 -66 21 -14 63 -8 81 12 38 42 13 102 -44 104 -27 1 -76
46 -353 324 l-323 322 300 0 301 0 97 -97 c102 -101 101 -99 97 -192 -2 -44
-1 -45 130 -176 82 -82 130 -137 125 -145 -4 -6 -1 -24 5 -41 15 -36 53 -48
89 -28 55 31 28 119 -37 119 -22 0 -52 24 -147 120 l-120 120 -1 68 c-1 37 -2
70 -3 74 0 3 -40 45 -88 92 l-87 86 170 0 170 0 83 -85 c66 -68 82 -90 81
-112 -5 -64 1 -85 33 -119 95 -104 256 -24 239 118 -5 44 -67 107 -107 109
-14 1 -31 2 -37 3 -7 2 -20 -1 -28 -5 -11 -6 -43 20 -118 94 l-102 102 -900 1
-899 0 -41 42 c-33 33 -38 42 -23 43 24 1 2233 1 2256 0 27 -1 167 -147 162
-170 -5 -27 31 -61 64 -61 36 0 61 28 61 68 0 38 -35 66 -72 57 -20 -5 -37 6
-103 72 l-78 78 -1178 1 -1178 0 -81 81 c-45 45 -78 83 -73 85 4 3 352 4 773
4 l765 -1 0 -38 c0 -63 54 -95 103 -61 45 31 19 114 -37 114 -12 0 -29 7 -37
15 -14 13 -118 15 -821 15 -754 0 -808 1 -826 17 -17 16 -50 18 -349 19 l-329
1 -53 52 c-48 47 -53 56 -51 93 1 26 8 44 19 50 51 28 74 87 62 153 -7 33 -41
78 -67 87 -6 2 -13 15 -14 28 -1 14 -3 28 -4 31 0 4 -66 71 -145 151 l-144
144 -6 456 -6 457 30 18 c38 22 64 76 57 118 -5 28 0 38 34 71 33 32 45 38 74
36 75 -7 141 57 133 129 -2 25 5 39 42 75 42 41 48 44 85 38 22 -3 52 -1 66 5
33 12 295 -44 382 -82 49 -22 57 -30 57 -52 0 -103 128 -168 216 -110 37 24
58 64 60 114 2 41 6 49 43 77 22 18 60 48 83 67 24 19 117 95 208 168 91 73
182 147 203 165 36 30 40 31 65 18 93 -48 213 37 196 141 -19 121 -160 164
-243 75 l-26 -29 -167 -5 c-93 -3 -168 -2 -168 3 0 7 75 140 310 545 42 73 66
104 93 119 93 53 90 214 -4 263 -48 24 -122 15 -160 -22 -30 -29 -51 -84 -44
-119 2 -11 4 -26 4 -33 1 -6 18 -29 39 -50 l39 -37 -176 -313 c-124 -222 -180
-312 -190 -310 -16 3 -17 12 -45 233 -3 28 -22 177 -41 331 -19 155 -35 297
-35 315 1 55 37 149 66 172 78 61 61 188 -31 231 -56 27 -117 12 -165 -39 -21
-22 -25 -37 -26 -90 -1 -69 -3 -74 -89 -190 -28 -38 -94 -129 -146 -201 l-95
-131 -34 24 c-90 61 -220 -5 -220 -111 0 -36 23 -87 48 -110 19 -16 22 -29 21
-91 -1 -66 -3 -74 -30 -99 -33 -31 -46 -83 -31 -124 9 -28 6 -33 -54 -93 -35
-34 -66 -60 -69 -57 -9 9 -68 211 -67 233 0 11 3 36 7 56 9 46 -14 98 -53 121
l-28 17 0 136 1 136 28 17 c33 20 57 68 57 114 0 28 10 43 58 90 31 31 68 60
82 63 44 11 90 61 90 98 0 16 69 97 200 237 52 55 228 246 242 262 67 78 115
121 153 139 48 23 75 65 75 119 0 25 12 47 48 89 26 31 56 67 67 80 56 67 62
72 86 63 13 -5 40 -8 60 -7 103 7 158 121 103 213 -70 116 -254 64 -254 -73 0
-43 -4 -48 -127 -190 -53 -61 -67 -71 -88 -68 -13 3 -38 1 -54 -5 -28 -10 -32
-7 -80 46 -28 32 -86 95 -129 141 -76 81 -79 85 -66 110 8 14 14 37 14 49 0
29 -29 92 -41 92 -8 0 -6 65 6 165 2 17 7 66 11 110 4 44 8 89 10 100 1 11 3
28 3 37 1 13 6 15 29 9 27 -8 46 -7 89 4 28 7 83 61 84 84 1 9 2 31 4 49 4 58
-57 126 -121 135 -44 7 -111 -25 -132 -63 -9 -17 -26 -30 -37 -31 -11 0 -27
-2 -35 -3 -8 -2 -46 -7 -84 -11 -38 -4 -79 -8 -90 -10 -12 -2 -46 -6 -76 -9
l-55 -7 -84 163 c-46 90 -121 236 -167 324 -82 158 -84 163 -69 190 35 68 5
162 -60 190 -38 15 -89 17 -120 5z m-80 -145 c-1 -19 -9 -45 -17 -58 -12 -18
-326 -227 -425 -282 -11 -6 -92 12 -433 94 -69 17 -168 40 -220 52 -90 20
-120 32 -109 43 5 4 84 17 394 65 236 37 319 50 360 55 23 3 50 7 60 9 11 2
40 7 65 11 52 8 76 12 180 30 41 7 91 13 110 14 34 1 36 0 35 -33z m297 -246
c42 -80 114 -220 162 -312 47 -93 85 -168 84 -169 -13 -3 -52 -9 -98 -14 -112
-12 -156 -17 -180 -21 -14 -2 -56 -6 -95 -10 -38 -4 -73 -8 -76 -10 -11 -6
-54 51 -53 71 2 33 14 138 19 165 3 14 7 52 10 85 3 33 7 74 10 90 3 17 7 57
10 90 8 87 17 149 21 154 2 2 19 5 38 7 19 1 42 6 52 12 11 6 19 10 20 9 1 -1
35 -67 76 -147z m-226 70 c-4 -39 -9 -78 -10 -88 -2 -9 -7 -48 -10 -87 -4 -38
-9 -86 -12 -105 -2 -19 -6 -51 -9 -70 -2 -19 -7 -64 -11 -100 -4 -36 -7 -71
-7 -77 0 -7 -12 -12 -26 -11 -60 3 -82 -4 -116 -33 -19 -17 -38 -42 -41 -55
-3 -13 -9 -24 -13 -25 -3 0 -13 -2 -21 -4 -8 -2 -28 -7 -44 -10 -16 -3 -33 -8
-38 -11 -10 -7 2 21 74 168 49 101 61 117 85 122 37 8 81 49 89 83 4 15 2 47
-5 72 -12 45 -12 46 50 173 35 70 65 128 67 128 3 0 1 -32 -2 -70z m-175 -52
c-41 -75 -56 -95 -81 -103 -18 -6 -42 -21 -55 -33 -12 -12 -30 -22 -38 -22
-28 0 -117 23 -117 31 0 4 66 49 148 100 81 51 154 98 162 106 33 30 28 8 -19
-79z m-626 -84 c83 -20 160 -38 172 -40 72 -14 71 -17 -43 -91 -245 -158 -233
-152 -266 -136 -19 10 -43 13 -67 9 l-37 -6 -118 160 c-102 140 -117 164 -111
189 l6 28 157 -39 c86 -21 225 -54 307 -74z m403 -96 c50 -10 52 -12 52 -44 0
-24 -5 -34 -16 -34 -9 0 -128 -32 -266 -71 -137 -39 -252 -68 -255 -65 -3 3
28 26 68 52 176 112 246 157 269 173 19 14 32 16 60 9 19 -4 59 -13 88 -20z
m74 -110 c4 -12 -133 -334 -149 -348 -6 -7 -213 -50 -236 -50 -4 0 -40 48 -82
107 -85 121 -93 152 -40 164 17 4 134 36 260 72 264 75 242 70 247 55z m1186
-242 c2 -37 -3 -49 -35 -86 -26 -30 -37 -50 -35 -69 2 -20 -10 -39 -55 -83
l-58 -58 -78 150 c-43 83 -75 150 -70 150 4 0 42 5 83 10 41 6 100 13 130 16
30 3 56 7 57 8 1 1 15 3 31 4 27 2 29 0 30 -42z m-293 -153 c44 -85 81 -158
83 -162 3 -10 7 -6 -193 -216 -82 -86 -175 -184 -206 -217 -49 -53 -57 -58
-71 -45 -8 8 -65 139 -126 291 l-112 276 40 40 c22 22 41 50 42 63 0 12 1 33
2 47 1 27 -1 26 171 45 33 3 107 12 165 18 58 7 110 13 115 13 6 0 47 -69 90
-153z m-915 -69 c-58 -38 -106 -67 -108 -63 -3 6 63 146 74 158 2 2 32 9 66
15 l63 11 5 -25 c5 -23 -4 -32 -100 -96z m1188 96 c-7 -10 -14 -17 -17 -15 -4
4 18 35 25 35 2 0 -1 -9 -8 -20z m-1339 -47 c-5 -16 -19 -48 -30 -73 -20 -44
-22 -45 -60 -42 -33 4 -44 11 -74 53 -34 48 -34 49 -12 53 42 9 172 34 179 35
4 1 3 -11 -3 -26z m444 -327 c117 -294 124 -316 109 -316 -14 0 -42 -63 -42
-93 0 -21 -9 -28 -56 -47 -47 -20 -58 -21 -64 -9 -42 74 -127 102 -198 65 -42
-22 -63 -56 -70 -111 -5 -45 -10 -50 -60 -60 -11 -2 -37 -8 -58 -14 -21 -6
-38 -9 -39 -8 0 1 -8 18 -16 37 -13 29 -15 75 -12 282 l3 248 38 34 c34 32 37
39 37 89 l0 55 129 85 130 86 30 -26 c25 -21 51 -77 139 -297z m889 297 c-3
-16 -7 -22 -10 -15 -4 13 4 42 11 42 2 0 2 -12 -1 -27z m-1599 -94 c27 -44 47
-85 44 -93 -3 -7 -70 -39 -149 -71 -78 -32 -147 -62 -152 -67 -16 -13 -52 -9
-66 6 -19 23 -78 39 -118 31 -22 -4 -49 -20 -69 -41 l-32 -35 -138 41 c-396
119 -401 120 -308 134 22 3 49 7 60 10 11 2 126 25 255 50 129 25 246 49 260
52 14 3 39 8 55 10 17 3 62 12 100 20 39 8 86 17 105 20 19 3 37 8 39 10 2 2
18 4 35 4 28 0 36 -9 79 -81z m1566 29 c9 -112 -2 -233 -20 -222 -5 3 -27 41
-49 84 l-40 79 47 50 c26 28 50 51 53 51 3 0 8 -19 9 -42z m-89 -167 l39 -79
-21 -28 c-15 -18 -22 -42 -22 -73 -1 -29 -7 -52 -17 -61 -20 -19 -178 -162
-194 -175 -6 -5 -35 -32 -63 -60 -44 -42 -57 -49 -87 -47 -100 7 -158 -110
-97 -196 15 -21 20 -43 19 -99 0 -46 -4 -73 -11 -73 -6 0 -11 20 -11 49 0 38
-5 55 -23 74 -21 22 -23 34 -23 113 0 48 4 90 9 93 40 28 53 95 27 145 -15 29
-15 31 19 65 19 20 52 54 73 76 213 225 337 355 340 355 1 0 21 -36 43 -79z
m-1416 -26 c9 -13 16 -28 16 -33 0 -8 -193 -317 -206 -331 -3 -3 -37 27 -76
67 l-71 72 -1 60 -1 60 125 51 c69 28 136 57 150 65 36 19 46 17 64 -11z
m-934 -38 c63 -20 149 -45 190 -57 147 -42 135 -36 135 -79 1 -78 67 -135 148
-128 l48 4 79 -79 c44 -44 80 -81 80 -84 0 -2 -28 -49 -61 -104 -53 -86 -64
-98 -80 -90 -29 16 -79 12 -113 -9 l-31 -20 -95 60 c-52 33 -173 108 -267 166
-152 93 -173 110 -173 132 0 34 -24 78 -54 102 -32 25 -29 65 6 100 28 28 54
102 42 120 -4 7 0 9 12 6 11 -3 71 -21 134 -40z m964 -74 c-1 -15 -4 -114 -5
-221 -3 -185 -4 -195 -24 -202 -16 -6 -34 6 -92 63 -40 39 -73 75 -73 80 0 12
183 306 191 307 3 0 5 -12 3 -27z m1600 -175 c26 -31 116 -127 193 -209 33
-35 33 -35 17 -68 -10 -21 -14 -45 -11 -67 3 -19 4 -34 3 -34 -2 0 -54 -11
-116 -25 -62 -14 -114 -25 -116 -25 -1 0 -11 15 -22 33 -21 37 -75 67 -119 67
-68 0 -132 -63 -135 -133 l-1 -34 -116 -27 c-64 -14 -119 -26 -122 -26 -8 0
-4 94 5 108 4 7 13 12 19 12 22 1 50 53 55 102 4 39 11 54 36 75 17 14 77 69
134 121 149 138 154 142 187 143 17 0 39 4 50 9 29 12 28 13 59 -22z m-1757
-297 c46 -47 55 -62 53 -98 -1 -7 -207 -61 -237 -63 -6 0 -18 14 -27 30 -14
30 -14 32 47 130 l61 99 25 -22 c13 -12 48 -46 78 -76z m875 60 c9 -10 24 -23
33 -28 13 -8 18 -26 19 -77 2 -64 1 -68 -26 -84 -15 -9 -28 -19 -28 -23 0 -7
-216 -189 -224 -189 -3 0 -5 53 -5 118 l0 117 27 16 c29 17 62 73 62 107 0 14
14 25 53 40 65 26 69 26 89 3z m-374 -142 l40 -40 -1 -110 c-2 -166 -5 -166
-150 -21 -111 111 -117 120 -108 145 7 18 21 29 48 36 74 18 118 29 125 30 3
1 24 -17 46 -40z m1441 -66 c-18 -20 -38 -42 -44 -48 -48 -55 -204 -227 -295
-325 -14 -15 -47 -52 -74 -83 -27 -32 -53 -57 -57 -57 -4 0 33 81 81 179 60
122 97 185 115 197 28 18 53 59 58 96 3 20 16 26 108 50 145 37 151 36 108 -9z
m-1835 -11 c16 -12 32 -22 35 -22 9 0 7 -387 -2 -396 -10 -10 -346 327 -347
347 0 27 20 36 140 64 63 15 116 28 118 30 7 7 30 -2 56 -23z m273 -127 c102
-101 106 -106 93 -129 -8 -16 -10 -39 -6 -64 l6 -40 -86 -66 -87 -65 -19 25
c-22 27 -22 30 -19 312 0 72 3 132 6 132 3 0 54 -47 112 -105z m496 -22 c11
-13 18 -23 15 -23 -3 0 -51 -12 -107 -26 -57 -14 -106 -23 -109 -19 -6 6 7 18
128 119 l34 28 9 -28 c5 -16 19 -39 30 -51z m617 37 l39 -39 -77 -168 c-86
-186 -100 -200 -139 -141 -12 18 -34 50 -48 70 -27 36 -27 38 -11 72 9 19 16
43 16 54 0 32 -19 75 -40 92 -40 32 -29 42 80 71 58 15 113 28 123 28 9 1 35
-17 57 -39z m-1890 5 c8 -10 9 -19 3 -27 -32 -42 -129 -164 -133 -168 -3 -3
-27 -33 -53 -66 l-46 -62 -61 3 c-54 2 -65 6 -95 35 -33 32 -34 36 -29 85 4
34 1 62 -9 87 l-15 36 61 13 c34 7 67 13 72 15 126 32 255 62 271 63 12 1 27
-6 34 -14z m46 -127 c-18 -268 -12 -258 -143 -261 -79 -2 -93 0 -102 16 -7 10
-8 23 -4 30 7 13 140 184 158 203 5 7 26 32 45 58 19 25 39 45 43 46 5 0 6
-42 3 -92z m231 -90 c135 -134 183 -189 183 -207 0 -21 -3 -23 -32 -18 -18 3
-78 11 -133 18 -89 10 -103 15 -129 40 -17 18 -44 32 -67 35 l-39 7 6 86 c4
47 8 102 9 121 2 19 4 50 4 68 1 17 4 32 8 32 4 0 90 -82 190 -182z m1130 110
c14 -13 23 -33 23 -53 0 -32 22 -71 52 -93 16 -12 18 -32 18 -221 0 -196 -1
-209 -20 -226 -20 -18 -23 -18 -103 10 -45 15 -91 36 -102 45 -92 80 -220 40
-242 -75 -8 -43 9 -87 50 -126 39 -39 44 -50 113 -280 62 -205 71 -247 69
-300 -5 -78 -30 -110 -80 -102 -67 11 -135 -49 -135 -119 0 -28 26 -80 46 -91
9 -5 14 -25 14 -60 l-1 -52 -20 42 c-13 27 -32 47 -54 57 -18 9 -96 79 -173
155 -122 123 -140 144 -146 180 -4 28 -16 50 -36 68 -28 24 -30 32 -30 92 0
60 3 69 30 94 52 49 50 136 -5 179 -34 27 -33 74 4 141 29 53 67 124 148 277
136 257 130 247 171 254 24 3 49 17 67 36 25 26 30 40 30 81 0 49 0 50 40 61
197 54 238 58 272 26z m303 -301 c0 -4 -7 -19 -16 -33 -12 -17 -15 -36 -10
-64 5 -35 2 -47 -30 -95 -20 -30 -39 -53 -43 -51 -5 3 -7 366 -2 386 2 7 101
-133 101 -143z m-958 -97 l-97 -190 -3 82 c-2 69 0 86 17 109 11 14 23 40 28
57 5 21 29 46 73 81 36 27 68 50 72 50 3 1 -37 -85 -90 -189z m-403 44 c96
-14 120 -21 138 -40 13 -12 31 -27 40 -33 16 -8 18 -30 18 -216 0 -113 -3
-211 -7 -218 -11 -17 -68 41 -149 153 -38 52 -99 137 -137 188 l-68 93 10 45
c7 27 16 44 25 44 8 0 66 -7 130 -16z m-379 -48 c0 -24 51 -65 91 -73 36 -7
48 -20 164 -178 69 -93 125 -174 125 -180 0 -6 29 -39 65 -75 37 -37 67 -76
70 -92 4 -16 18 -39 32 -52 21 -20 25 -33 27 -95 2 -57 -1 -75 -14 -84 -102
-75 -34 -233 91 -213 39 6 40 6 154 -109 104 -104 114 -117 102 -135 -6 -11
-14 -19 -17 -18 -3 2 -99 43 -212 92 l-206 88 -6 39 c-6 39 -32 70 -77 93 -15
8 -46 64 -100 184 -76 170 -77 173 -56 183 81 38 87 177 10 233 -52 38 -143
29 -183 -18 -10 -12 -16 -14 -26 -5 -8 6 -14 17 -14 24 0 8 -3 15 -7 17 -5 2
-15 17 -24 33 -9 17 -54 95 -100 175 -77 132 -83 147 -70 163 20 22 181 26
181 3z m2530 -13 c14 -9 26 -17 28 -19 2 -1 -9 -42 -23 -90 -49 -169 -198
-679 -234 -806 -29 -105 -39 -128 -54 -128 -62 0 -124 -70 -115 -131 4 -24 -3
-35 -47 -73 -28 -25 -76 -70 -107 -100 -39 -38 -65 -56 -82 -56 -23 0 -28 7
-50 83 -14 45 -27 92 -28 104 -4 32 172 209 217 217 92 18 124 135 55 203 -26
25 -28 34 -26 90 1 34 4 64 6 66 3 2 20 14 39 27 41 28 63 77 59 133 -3 40 5
53 162 269 91 125 167 228 170 228 3 0 17 -8 30 -17z m-1050 -250 c0 -28 28
-93 40 -93 5 0 9 -38 9 -85 1 -47 -1 -85 -3 -85 -2 0 -23 30 -47 68 -24 37
-63 98 -87 136 -25 38 -48 83 -52 101 l-7 33 73 -25 c66 -22 74 -28 74 -50z
m1126 -31 c13 -98 26 -204 30 -232 2 -19 18 -144 34 -276 17 -133 30 -246 30
-251 0 -5 -11 -15 -24 -23 -13 -7 -32 -27 -41 -44 l-17 -32 -122 2 c-66 1
-124 2 -127 3 -4 0 -10 12 -13 26 -7 28 -9 21 124 465 49 162 94 317 101 343
11 47 21 54 25 19z m-1090 -284 c20 -39 18 -95 -6 -120 -11 -12 -22 -38 -26
-57 -10 -61 -12 -64 -42 -56 -15 4 -27 7 -28 8 -2 4 -133 365 -144 397 -12 34
-10 37 26 75 l39 40 83 -129 c46 -72 90 -143 98 -158z m-1439 -36 c24 -21 51
-73 112 -217 45 -103 80 -190 78 -191 -2 -3 -123 32 -447 128 -74 22 -193 57
-265 78 -71 21 -200 59 -286 84 -86 25 -164 46 -173 46 -15 0 -24 19 -8 21 4
0 14 2 22 3 8 2 56 7 105 11 50 4 110 9 135 11 25 2 72 5 105 8 33 3 96 8 140
11 44 3 98 7 120 10 22 2 85 7 140 11 55 3 101 7 102 8 2 1 22 3 45 4 34 1 50
-4 75 -26z m-732 -172 c116 -34 255 -75 310 -91 192 -58 221 -67 403 -119 100
-29 182 -56 182 -59 -1 -25 -23 -32 -100 -32 -80 0 -85 1 -112 30 -33 36 -87
49 -133 32 -27 -10 -44 -7 -131 25 -54 20 -207 74 -339 121 -132 47 -266 95
-297 106 -39 14 -58 26 -58 37 0 25 9 29 38 20 15 -5 122 -37 237 -70z m2345
-132 c7 -24 20 -70 30 -103 10 -33 21 -69 24 -80 5 -16 -8 -34 -49 -75 -53
-52 -58 -55 -108 -55 -59 0 -97 -22 -119 -70 l-13 -29 -105 -3 -105 -3 0 39
c0 31 7 47 33 74 21 22 35 48 39 73 8 53 53 100 103 107 68 9 102 48 112 127
3 23 7 25 43 22 23 -2 52 2 65 7 38 15 38 14 50 -31z m-1468 -207 c4 -1 14
-16 23 -35 9 -18 27 -39 40 -46 23 -12 25 -19 25 -87 0 -56 -3 -73 -14 -73
-18 0 -236 208 -236 226 0 7 4 14 10 16 8 2 111 1 152 -1z m2965 -100 c10 -16
2 -26 -75 -89 -48 -39 -175 -142 -284 -230 l-196 -160 -22 24 c-31 32 -83 48
-132 40 -33 -5 -83 5 -252 55 -116 33 -214 66 -218 73 -16 24 -5 41 90 131 94
91 98 94 134 88 27 -4 48 0 78 16 36 19 57 21 185 21 126 0 150 -3 182 -20 57
-31 117 -22 152 21 13 17 34 22 126 30 61 5 116 11 124 12 64 10 97 6 108 -12z
m-1373 -111 l25 -85 -30 -29 c-18 -18 -32 -43 -35 -67 -5 -30 -19 -52 -62 -93
-31 -30 -61 -52 -67 -49 -8 3 -12 36 -11 103 1 94 2 100 29 128 16 17 30 45
34 68 4 27 18 52 47 82 22 23 42 39 43 35 2 -4 14 -46 27 -93z m-1565 -204
c16 -28 47 -47 95 -55 27 -5 70 -41 214 -182 100 -97 179 -179 176 -182 -4 -4
-315 115 -719 276 -77 31 -133 58 -125 61 44 16 327 104 336 105 6 1 16 -10
23 -23z m350 -1970 c18 -21 -24 -63 -45 -45 -15 12 -19 41 -7 52 11 12 40 8
52 -7z m365 -2 c10 -25 7 -33 -13 -43 -27 -15 -56 9 -47 37 9 26 51 30 60 6z
m361 -14 c0 -20 -6 -26 -26 -28 -19 -2 -28 2 -32 17 -6 24 12 43 38 39 14 -2
20 -11 20 -28z m369 15 c12 -33 -29 -66 -53 -42 -12 12 -15 40 -4 50 12 13 51
7 57 -8z m-4386 -997 c16 -16 15 -23 -4 -42 -12 -12 -20 -13 -35 -6 -19 10
-26 40 -12 53 10 11 38 8 51 -5z m7626 -14 c21 -8 21 -38 0 -55 -30 -24 -65
17 -41 49 11 14 18 15 41 6z m-4886 -898 c-2 -15 -10 -21 -28 -21 -20 0 -26 6
-28 27 -2 19 2 27 15 30 25 6 45 -11 41 -36z m2420 -39 c-2 -16 -10 -22 -28
-22 -28 0 -39 27 -20 50 18 21 52 1 48 -28z"/>
</g>
</svg>
