<?xml version="1.0" encoding="UTF-8"?>
<svg width="1440px" height="1024px" viewBox="0 0 1440 1024" version="1.1" xmlns="http://www.w3.org/2000/svg" xmlns:xlink="http://www.w3.org/1999/xlink">
    <title>Desktop HD Copy 3@2x</title>
    <defs>
        <polygon id="path-1" points="0 0.8066 13.0467 0.8066 13.0467 13.8526 0 13.8526"></polygon>
    </defs>
    <g id="Desktop-HD-Copy-3" stroke="none" stroke-width="1" fill="none" fill-rule="evenodd">
        <rect fill="#FFFFFF" x="0" y="0" width="1440" height="1024"></rect>
        <polyline id="Path-4" stroke="#979797" stroke-width="3" stroke-linecap="round" stroke-linejoin="round" points="628.2632 488 492.5085 448 607.2915 439 570 375 607.2915 328 604 372 659.501346 379.470547 697.443772 351 656.983 311 663 241 717.4705 205 822 193 803.0947 213.671407 807.5919 262"></polyline>
        <polyline id="Path-3" stroke="#979797" stroke-width="3" stroke-linecap="round" stroke-linejoin="round" points="570 548 626.1915 530 591 493 636 493 693.958 518 753.9655 517 798 475 803.0947 439 854.0203 369 871 505 928 500 850.5858 562.7087 786 536"></polyline>
        <polyline id="Path-3" stroke="#979797" stroke-width="3" stroke-linecap="round" stroke-linejoin="round" points="570 548 626.1915 530 591 493 636 493 693.958 518 753.9655 517 798 475 803.0947 439 854.0203 369 871 505 928 500 850.5858 562.7087 786 536 763.3655 460 723 397 757 409 780 381 755 347 730.4147 320 698 347 798 323 850.5858 311 805 262 730.4147 116.63032 582 139.605848 705 169 620 193 726 125.677963 717 205 533 241 603 262 664.957 236.1368 612 320 545 340.5 705 303 735 291 822 199.437268"></polyline>
        <g id="Group-192" transform="translate(308.000000, 82.000000)">
            <polygon id="Fill-98" fill="#989A9B" points="78.0233 743.9388 102.8413 719.1208 99.7983 716.0778 75.4883 740.3878"></polygon>
            <g id="Group-178" transform="translate(0.000000, 676.866000)">
                <path d="M233.6981,19.647 L26.1181,19.647 C25.5481,19.647 25.0001,19.874 24.5961,20.277 L6.5231,38.35 L9.5661,41.393 L27.0101,23.95 L233.6981,23.95 L233.6981,19.647 Z" id="Fill-99" fill="#989A9B"></path>
                <path d="M95.4735,99.3218 L119.3355,75.4608 L153.5295,75.4608 C154.0995,75.4608 154.6475,75.2338 155.0505,74.8308 L184.5085,45.3728 L181.4655,42.3298 L152.6375,71.1578 L118.4445,71.1578 C117.8735,71.1578 117.3265,71.3848 116.9225,71.7878 L92.4305,96.2788 L95.4735,99.3218 Z" id="Fill-101" fill="#989A9B"></path>
                <path d="M153.4109,116.7681 L200.7049,69.4741 L222.2599,69.4741 C222.8299,69.4741 223.3779,69.2471 223.7809,68.8441 L273.0699,19.5551 L270.0269,16.5121 L221.3679,65.1711 L199.8129,65.1711 C199.2429,65.1711 198.6949,65.3981 198.2919,65.8011 L150.3679,113.7251 L153.4109,116.7681 Z" id="Fill-103" fill="#989A9B"></path>
                <path d="M233.493,129.8033 L297.519,65.7773 L316.024,65.7773 C316.595,65.7773 317.142,65.5503 317.546,65.1473 L348.983,33.7093 L345.94,30.6663 L315.133,61.4743 L296.628,61.4743 C296.057,61.4743 295.51,61.7003 295.106,62.1043 L230.542,126.6673 L233.493,129.8033 Z" id="Fill-105" fill="#989A9B"></path>
                <polygon id="Fill-107" fill="#989A9B" points="283.5555 129.396 318.1915 94.761 315.1485 91.718 280.3915 126.474"></polygon>
                <path d="M704.9715,14.1617 L702.6505,11.8397 C702.2465,11.4357 701.6995,11.2097 701.1285,11.2097 L539.1425,11.2097 L539.1425,15.5127 L700.2375,15.5127 L701.5245,16.7997 L704.9715,14.1617 Z" id="Fill-109" fill="#989A9B"></path>
                <path d="M449.2225,54.5161 L426.7095,77.0291 C426.3065,77.4321 426.0795,77.9801 426.0795,78.5501 L425.7735,92.6351 L407.8385,110.5691 L410.8815,113.6121 L429.4465,95.0481 C429.8495,94.6451 430.0765,94.0971 430.0765,93.5271 L430.3825,79.4421 L452.8955,56.9291 C453.2985,56.5261 453.5255,55.9781 453.5255,55.4081 L449.2225,54.5161 Z" id="Fill-111" fill="#989A9B"></path>
                <path d="M454.6033,152.6568 L454.6033,135.2158 L474.7773,115.0408 C475.1803,114.6368 475.4073,114.0898 475.4073,113.5188 L475.4073,84.8068 L471.1043,84.8068 L471.1043,112.6278 L450.9303,132.8028 C450.5273,133.2048 450.3003,133.7538 450.3003,134.3238 L450.3003,151.7648 L454.6033,152.6568 Z" id="Fill-113" fill="#989A9B"></path>
                <path d="M537.0457,60.3111 L522.2107,45.4761 L522.2107,36.8051 C522.2107,36.2351 521.9837,35.6871 521.5807,35.2841 L498.1377,11.8391 L495.0947,14.8821 L517.9077,37.6971 L517.9077,46.3681 C517.9077,46.9381 518.1347,47.4861 518.5377,47.8891 L534.0107,63.3621 L537.0457,60.3111 Z" id="Fill-115" fill="#989A9B"></path>
                <path d="M383.3792,72.7505 L369.9672,59.3395 L369.9672,39.1855 L376.0142,33.1385 C376.4182,32.7345 376.6442,32.1875 376.6442,31.6165 L376.6442,0.8175 L372.3412,0.8175 L372.3412,30.7255 L366.2952,36.7715 C365.8912,37.1755 365.6652,37.7235 365.6652,38.2935 L365.6652,60.2305 C365.6652,60.8015 365.8912,61.3495 366.2952,61.7525 L380.3362,75.7935 L383.3792,72.7505 Z" id="Fill-117" fill="#989A9B"></path>
                <path d="M363.0692,129.6158 L347.1202,113.6668 L347.1202,102.0748 C347.1202,101.5048 346.8942,100.9568 346.4902,100.5538 L323.3062,77.3688 L320.2632,80.4118 L342.8182,102.9668 L342.8182,114.5578 C342.8182,115.1288 343.0442,115.6768 343.4472,116.0798 L359.8862,132.5188 L363.0692,129.6158 Z" id="Fill-119" fill="#989A9B"></path>
                <polygon id="Fill-121" fill="#989A9B" points="282.8187 44.23 312.1667 14.882 309.1237 11.839 280.0397 40.923"></polygon>
                <path d="M408.3914,37.5288 L424.3084,21.6108 C424.7114,21.2078 424.9384,20.6598 424.9384,20.0898 L424.9384,2.6598 L420.6354,2.6598 L420.6354,19.1978 L405.3484,34.4858 L408.3914,37.5288 Z" id="Fill-123" fill="#989A9B"></path>
                <path d="M533.3289,122.9507 L522.4769,112.0987 C522.0739,111.6957 521.5259,111.4697 520.9559,111.4697 L499.5919,111.4697 L499.5919,115.7717 L520.0639,115.7717 L530.2859,125.9937 L533.3289,122.9507 Z" id="Fill-125" fill="#989A9B"></path>
                <path d="M591.9803,133.6978 L549.4983,91.2148 C549.0943,90.8108 548.5463,90.5848 547.9763,90.5848 L527.5293,90.5848 L489.6743,52.7298 C489.2713,52.3268 488.7233,52.0998 488.1533,52.0998 L455.3663,52.0998 L455.3663,56.4028 L487.2613,56.4028 L525.1163,94.2578 C525.5193,94.6608 526.0673,94.8868 526.6373,94.8868 L547.0843,94.8868 L588.9373,136.7408 L591.9803,133.6978 Z" id="Fill-127" fill="#989A9B"></path>
                <path d="M657.7449,110.8023 L638.7959,91.8523 C638.3919,91.4483 637.8449,91.2223 637.2739,91.2223 L617.3899,91.2223 L580.0529,53.8863 L577.0099,56.9293 L614.9759,94.8953 C615.3799,95.2983 615.9279,95.5253 616.4979,95.5253 L636.3829,95.5253 L655.0519,114.1953 L657.7449,110.8023 Z" id="Fill-129" fill="#989A9B"></path>
                <polygon id="Fill-131" fill="#989A9B" points="715.409 121.3365 647.959 53.8865 644.916 56.9295 712.366 124.3795"></polygon>
                <path d="M763.5037,117.0327 L734.4247,87.9537 L734.4247,74.6677 C734.4247,74.0967 734.1977,73.5497 733.7947,73.1457 L713.3787,52.7297 L710.3357,55.7727 L730.1217,75.5587 L730.1217,88.8457 C730.1217,89.4157 730.3487,89.9637 730.7517,90.3667 L760.4607,120.0757 L763.5037,117.0327 Z" id="Fill-133" fill="#989A9B"></path>
                <path d="M813.8113,48.9419 L798.1103,33.2399 C797.7073,32.8369 797.1593,32.6099 796.5883,32.6099 L561.7753,32.6099 L561.7753,36.9129 L795.6973,36.9129 L811.1593,52.3749 L813.8113,48.9419 Z" id="Fill-135" fill="#989A9B"></path>
                <path d="M601.2381,139.5347 C601.2381,143.1377 598.3171,146.0577 594.7151,146.0577 C591.1121,146.0577 588.1911,143.1377 588.1911,139.5347 C588.1911,135.9317 591.1121,133.0117 594.7151,133.0117 C598.3171,133.0117 601.2381,135.9317 601.2381,139.5347" id="Fill-137" fill="#989A9B"></path>
                <path d="M546.0203,64.9341 C546.0203,68.5371 543.1003,71.4571 539.4983,71.4571 C535.8943,71.4571 532.9743,68.5371 532.9743,64.9341 C532.9743,61.3311 535.8943,58.4111 539.4983,58.4111 C543.1003,58.4111 546.0203,61.3311 546.0203,64.9341" id="Fill-139" fill="#989A9B"></path>
                <path d="M542.5858,128.9585 C542.5858,132.5615 539.6658,135.4815 536.0638,135.4815 C532.4598,135.4815 529.5398,132.5615 529.5398,128.9585 C529.5398,125.3555 532.4598,122.4365 536.0638,122.4365 C539.6658,122.4365 542.5858,125.3555 542.5858,128.9585" id="Fill-141" fill="#989A9B"></path>
                <path d="M459.0115,154.8648 C459.0115,158.4678 456.0905,161.3878 452.4885,161.3878 C448.8855,161.3878 445.9655,158.4678 445.9655,154.8648 C445.9655,151.2618 448.8855,148.3418 452.4885,148.3418 C456.0905,148.3418 459.0115,151.2618 459.0115,154.8648" id="Fill-143" fill="#989A9B"></path>
                <path d="M417.0145,110.5572 C417.0145,114.1602 414.0945,117.0802 410.4915,117.0802 C406.8885,117.0802 403.9685,114.1602 403.9685,110.5572 C403.9685,106.9542 406.8885,104.0342 410.4915,104.0342 C414.0945,104.0342 417.0145,106.9542 417.0145,110.5572" id="Fill-145" fill="#989A9B"></path>
                <path d="M371.7684,135.3355 C371.7684,138.9385 368.8484,141.8585 365.2454,141.8585 C361.6424,141.8585 358.7224,138.9385 358.7224,135.3355 C358.7224,131.7325 361.6424,128.8125 365.2454,128.8125 C368.8484,128.8125 371.7684,131.7325 371.7684,135.3355" id="Fill-147" fill="#989A9B"></path>
                <path d="M284.7449,132.2749 C284.7449,135.8779 281.8249,138.7979 278.2219,138.7979 C274.6189,138.7979 271.6979,135.8779 271.6979,132.2749 C271.6979,128.6719 274.6189,125.7519 278.2219,125.7519 C281.8249,125.7519 284.7449,128.6719 284.7449,132.2749" id="Fill-149" fill="#989A9B"></path>
                <path d="M234.4861,132.2749 C234.4861,135.8779 231.5661,138.7979 227.9631,138.7979 C224.3601,138.7979 221.4401,135.8779 221.4401,132.2749 C221.4401,128.6719 224.3601,125.7519 227.9631,125.7519 C231.5661,125.7519 234.4861,128.6719 234.4861,132.2749" id="Fill-151" fill="#989A9B"></path>
                <path d="M283.6888,46.4536 C283.6888,50.0566 280.7688,52.9756 277.1658,52.9756 C273.5628,52.9756 270.6428,50.0566 270.6428,46.4536 C270.6428,42.8496 273.5628,39.9306 277.1658,39.9306 C280.7688,39.9306 283.6888,42.8496 283.6888,46.4536" id="Fill-153" fill="#989A9B"></path>
                <path d="M154.4901,119.2281 C154.4901,122.8311 151.5701,125.7511 147.9671,125.7511 C144.3651,125.7511 141.4441,122.8311 141.4441,119.2281 C141.4441,115.6251 144.3651,112.7051 147.9671,112.7051 C151.5701,112.7051 154.4901,115.6251 154.4901,119.2281" id="Fill-155" fill="#989A9B"></path>
                <path d="M96.5526,101.7232 C96.5526,105.3262 93.6326,108.2462 90.0296,108.2462 C86.4266,108.2462 83.5066,105.3262 83.5066,101.7232 C83.5066,98.1202 86.4266,95.2002 90.0296,95.2002 C93.6326,95.2002 96.5526,98.1202 96.5526,101.7232" id="Fill-157" fill="#989A9B"></path>
                <path d="M78.7391,68.7652 C78.7391,72.3682 75.8181,75.2872 72.2161,75.2872 C68.6131,75.2872 65.6931,72.3682 65.6931,68.7652 C65.6931,65.1612 68.6131,62.2422 72.2161,62.2422 C75.8181,62.2422 78.7391,65.1612 78.7391,68.7652" id="Fill-159" fill="#989A9B"></path>
                <path d="M392.303,78.1949 C392.303,81.7979 389.383,84.7179 385.78,84.7179 C382.177,84.7179 379.257,81.7979 379.257,78.1949 C379.257,74.5919 382.177,71.6719 385.78,71.6719 C389.383,71.6719 392.303,74.5919 392.303,78.1949" id="Fill-161" fill="#989A9B"></path>
                <path d="M409.4705,39.9302 C409.4705,43.5332 406.5495,46.4532 402.9465,46.4532 C399.3445,46.4532 396.4235,43.5332 396.4235,39.9302 C396.4235,36.3272 399.3445,33.4072 402.9465,33.4072 C406.5495,33.4072 409.4705,36.3272 409.4705,39.9302" id="Fill-163" fill="#989A9B"></path>
                <g id="Group-167" transform="translate(0.000000, 35.000000)">
                    <mask id="mask-2" fill="white">
                        <use xlink:href="#path-1"></use>
                    </mask>
                    <g id="Clip-166"></g>
                    <path d="M13.0467,7.3296 C13.0467,10.9326 10.1257,13.8526 6.5237,13.8526 C2.9207,13.8526 -0.0003,10.9326 -0.0003,7.3296 C-0.0003,3.7266 2.9207,0.8066 6.5237,0.8066 C10.1257,0.8066 13.0467,3.7266 13.0467,7.3296" id="Fill-165" fill="#989A9B" mask="url(#mask-2)"></path>
                </g>
                <path d="M667.2918,116.6704 C667.2918,120.2734 664.3708,123.1934 660.7688,123.1934 C657.1658,123.1934 654.2448,120.2734 654.2448,116.6704 C654.2448,113.0674 657.1658,110.1474 660.7688,110.1474 C664.3708,110.1474 667.2918,113.0674 667.2918,116.6704" id="Fill-168" fill="#989A9B"></path>
                <path d="M724.4051,126.7808 C724.4051,130.3838 721.4841,133.3028 717.8821,133.3028 C714.2791,133.3028 711.3581,130.3838 711.3581,126.7808 C711.3581,123.1768 714.2791,120.2578 717.8821,120.2578 C721.4841,120.2578 724.4051,123.1768 724.4051,126.7808" id="Fill-170" fill="#989A9B"></path>
                <path d="M768.3465,118.7134 C768.3465,122.3164 765.4265,125.2364 761.8235,125.2364 C758.2205,125.2364 755.3005,122.3164 755.3005,118.7134 C755.3005,115.1104 758.2205,112.1904 761.8235,112.1904 C765.4265,112.1904 768.3465,115.1104 768.3465,118.7134" id="Fill-172" fill="#989A9B"></path>
                <path d="M823.4315,53.8863 C823.4315,57.4893 820.5105,60.4093 816.9085,60.4093 C813.3055,60.4093 810.3845,57.4893 810.3845,53.8863 C810.3845,50.2833 813.3055,47.3633 816.9085,47.3633 C820.5105,47.3633 823.4315,50.2833 823.4315,53.8863" id="Fill-174" fill="#989A9B"></path>
                <path d="M713.2654,20.5279 C713.2654,24.1309 710.3444,27.0509 706.7424,27.0509 C703.1394,27.0509 700.2184,24.1309 700.2184,20.5279 C700.2184,16.9249 703.1394,14.0049 706.7424,14.0049 C710.3444,14.0049 713.2654,16.9249 713.2654,20.5279" id="Fill-176" fill="#989A9B"></path>
            </g>
            <g id="Group-191" transform="translate(3.000000, 25.866000)" fill="#1D2021">
                <path d="M530.0457,823.5142 C528.1117,823.5142 526.5397,821.9422 526.5397,820.0082 C526.5397,818.0752 528.1117,816.5022 530.0457,816.5022 C531.9797,816.5022 533.5517,818.0752 533.5517,820.0082 C533.5517,821.9422 531.9797,823.5142 530.0457,823.5142 M415.9087,630.7392 C413.9757,630.7392 412.4027,629.1652 412.4027,627.2332 C412.4027,625.2992 413.9757,623.7262 415.9087,623.7262 C417.8417,623.7262 419.4147,625.2992 419.4147,627.2332 C419.4147,629.1652 417.8417,630.7392 415.9087,630.7392 M523.8747,807.4652 L514.5107,798.1002 L514.5107,784.1632 C514.5107,782.7732 513.9577,781.4392 512.9747,780.4562 L476.8317,744.3142 L476.8317,724.4752 C476.8317,723.0842 476.2787,721.7502 475.2957,720.7682 L436.4507,681.9222 L436.4507,664.9692 C436.4507,663.5782 435.8987,662.2452 434.9147,661.2622 L421.1517,647.4982 L421.1517,640.1992 C426.2787,638.1232 429.8997,633.1042 429.8997,627.2332 C429.8997,621.2462 426.1347,616.1542 420.8487,614.1552 L420.8487,608.1772 C420.8487,606.7892 420.2967,605.4592 419.3167,604.4792 L410.3107,595.4712 L410.3107,393.2162 L447.7817,355.7432 C448.7637,354.7632 449.3157,353.4322 449.3157,352.0452 L449.3157,305.3302 L472.2297,282.4162 L540.9267,207.7182 C541.9077,206.7372 542.4597,205.4062 542.4597,204.0192 L544.4597,200.1312 L565.6947,174.8942 C567.8087,176.1342 570.2387,176.8312 572.7617,176.8312 C573.9777,176.8312 575.2127,176.6722 576.4417,176.3372 C583.8987,174.3092 588.2997,166.6212 586.2717,159.1642 C584.5777,152.9372 578.9367,148.8412 572.7777,148.8412 C571.5637,148.8412 570.3267,149.0002 569.0987,149.3352 C561.6417,151.3632 557.2407,159.0512 559.2687,166.5082 C559.2707,166.5132 559.2727,166.5172 559.2737,166.5222 L535.5297,194.2652 C534.5487,195.2462 533.9977,196.5772 533.9977,197.9642 L531.9977,201.8522 L473.7627,266.0882 L492.6367,227.1452 C499.1307,224.5352 502.7887,217.4242 500.9067,210.5052 C499.2137,204.2782 493.5717,200.1812 487.4147,200.1812 C486.1987,200.1812 484.9637,200.3412 483.7337,200.6762 C476.2767,202.7032 471.8767,210.3922 473.9047,217.8482 C475.0987,222.2392 478.2587,225.5612 482.1737,227.1442 L459.2997,276.5502 L449.3157,290.5352 L449.3157,203.5632 C452.709033,200.430533 468.996033,185.443867 498.1767,158.6032 C499.1607,157.6202 499.7137,156.2862 499.7137,154.8962 L505.0267,101.9642 C507.0477,103.0652 509.3377,103.6772 511.7077,103.6772 C512.9227,103.6772 514.1577,103.5172 515.3877,103.1832 C522.8447,101.1552 527.2447,93.4662 525.2177,86.0102 C523.5247,79.7822 517.8817,75.6862 511.7247,75.6862 C510.5087,75.6862 509.2737,75.8462 508.0437,76.1802 C500.5877,78.2082 496.1867,85.8972 498.2147,93.3532 C498.2567,93.5072 498.3117,93.6532 498.3587,93.8052 L489.2267,152.7242 C465.004033,174.429533 451.700367,186.484533 449.3157,188.8892 L438.737557,199.960528 L438.8537,228.4092 L431.7417,221.2972 L431.7417,178.5692 C431.7417,177.1822 431.1907,175.8512 430.2087,174.8702 L405.6707,114.4822 C412.1637,111.8712 415.8217,104.7602 413.9407,97.8422 C412.2467,91.6142 406.6047,87.5182 400.4467,87.5182 C399.2317,87.5182 397.9967,87.6782 396.7667,88.0122 C389.3107,90.0402 384.9097,97.7292 386.9377,105.1852 C388.1317,109.5762 391.2917,112.8982 395.2077,114.4812 L421.2787,180.7362 L421.2787,223.4642 C421.2787,224.8512 421.8307,226.1822 422.8127,227.1632 L438.8537,243.2032 L438.8537,349.8782 L429.0677,359.6632 L411.2237,310.5822 C417.7167,307.9722 421.3747,300.8612 419.4937,293.9422 C417.7997,287.7152 412.1577,283.6192 406.0007,283.6192 C404.7847,283.6192 403.5497,283.7792 402.3197,284.1132 C394.8637,286.1402 390.4627,293.8292 392.4907,301.2862 C393.6847,305.6762 396.8447,308.9992 400.7617,310.5822 L418.3247,368.602699 L401.3807,387.3522 C400.3997,388.3322 399.8467,389.6622 399.8467,391.0502 L399.8467,597.6372 C399.8467,599.0242 400.3997,600.3552 401.3787,601.3352 L410.3857,610.3432 L410.3857,614.3772 C405.4057,616.5202 401.9167,621.4672 401.9167,627.2332 C401.9167,633.1042 405.5377,638.1232 410.6657,640.1992 L410.6657,649.6702 C410.6657,651.0612 411.2187,652.3952 412.2017,653.3772 L425.9647,667.1412 L425.9647,684.0942 C425.9647,685.4852 426.5177,686.8192 427.5007,687.8012 L466.3457,726.6462 L466.3457,746.4862 C466.3457,747.8762 466.8987,749.2102 467.8817,750.1932 L504.0247,786.3352 L504.0247,800.2722 C504.0247,801.6622 504.5767,802.9962 505.5607,803.9792 L516.8827,815.3012 C516.3567,816.7752 516.0537,818.3542 516.0537,820.0082 C516.0537,827.7362 522.3177,833.9992 530.0457,833.9992 C537.7737,833.9992 544.0367,827.7362 544.0367,820.0082 C544.0367,812.2812 537.7737,806.0162 530.0457,806.0162 C527.8277,806.0162 525.7377,806.5462 523.8747,807.4652 Z" id="Fill-183"></path>
                <path d="M777.7,733.1499 C775.767,733.1499 774.194,731.5769 774.194,729.6429 C774.194,727.7109 775.767,726.1369 777.7,726.1369 C779.634,726.1369 781.207,727.7109 781.207,729.6429 C781.207,731.5769 779.634,733.1499 777.7,733.1499 M452.366,630.7389 C450.432,630.7389 448.859,629.1659 448.859,627.2329 C448.859,625.2989 450.432,623.7259 452.366,623.7259 C454.299,623.7259 455.872,625.2989 455.872,627.2329 C455.872,629.1659 454.299,630.7389 452.366,630.7389 M771.921,716.9119 L753.462,698.2619 C752.477,697.2679 751.135,696.7079 749.735,696.7079 L572.232,696.7079 L535.655,660.1309 C534.672,659.1479 533.339,658.5949 531.948,658.5949 L467.987,658.5949 L457.609,648.2159 L457.609,640.1989 C462.736,638.1239 466.357,633.1039 466.357,627.2329 C466.357,621.4089 462.799,616.4209 457.738,614.3129 L457.738,611.2729 C457.738,609.8849 457.186,608.5539 456.205,607.5739 L428.098,579.4659 L427.074,479.3459 L471.495,436.1829 L523.775,447.3409 C522.814,449.9669 522.619,452.9019 523.408,455.8059 C525.102,462.0339 530.744,466.1289 536.901,466.1289 C538.117,466.1289 539.352,465.9699 540.582,465.6349 C548.038,463.6079 552.439,455.9199 550.411,448.4629 C548.718,442.2349 543.076,438.1389 536.918,438.1389 C535.703,438.1389 534.468,438.2979 533.238,438.6329 C532.378,438.8669 531.563,439.1839 530.789,439.5599 L482.262,425.7199 L508.522,400.2039 L560.243,400.2039 C561.634,400.2039 562.968,399.6509 563.95,398.6679 C562.371661,397.431683 563.854574,396.337854 568.398738,395.386413 C574.637907,394.080076 586.329994,393.787239 603.475,394.5079 C605.365,400.3859 610.823,404.2179 616.773,404.2179 C617.989,404.2179 619.224,404.0589 620.454,403.7239 C627.91,401.6969 632.311,394.0069 630.283,386.5509 C628.59,380.3239 622.948,376.2279 616.791,376.2279 C615.575,376.2279 614.34,376.3869 613.11,376.7219 C609.09,377.8149 605.971,380.5609 604.256,384.0229 L569.188,385.0229 L608.692,316.7879 C615.178,314.1729 618.83,307.0679 616.95,300.1529 C615.256,293.9259 609.614,289.8299 603.457,289.8299 C602.241,289.8299 601.006,289.9899 599.776,290.3239 C592.32,292.3519 587.919,300.0409 589.947,307.4969 C591.139,311.8829 594.295,315.2039 598.206,316.7889 C583.250494,343.736502 572.033864,363.780536 564.556111,376.921004 C564.290309,377.388092 563.891605,377.75539 563.36,378.0229 L558.072,389.7169 L519.314,389.7169 L552.838,276.9299 C558.92,274.1159 562.275,267.2609 560.458,260.5779 C558.763,254.3509 553.122,250.2549 546.965,250.2549 C545.749,250.2549 544.513,250.4139 543.284,250.7489 C535.828,252.7759 531.427,260.4649 533.455,267.9219 C534.712,272.5449 538.147,275.9879 542.351,277.4589 L511,385.134 L449.315,443.1479 L449.315,413.0529 L490.792,371.5759 C491.773,370.5949 492.324,369.2649 492.324,367.8779 L492.324,339.4629 C492.472,339.4289 492.621,339.3989 492.768,339.3579 C500.225,337.3309 504.626,329.6419 502.597,322.1859 C500.904,315.9589 495.263,311.8619 489.105,311.8619 C487.889,311.8619 486.654,312.0219 485.425,312.3559 C477.969,314.3839 473.567,322.0719 475.596,329.5289 C476.578,333.1409 478.892,336.0279 481.862,337.8229 L481.862,365.7109 L440.386,407.1889 C439.404,408.1699 438.852,409.5009 438.852,410.8869 L438.852,453.3149 L418.177,473.4049 C417.149,474.4029 416.576,475.7779 416.59017,477.2109 L417.66,581.7099 C417.674,583.0779 418.223,584.3869 419.191,585.3539 L447.275,613.4389 L447.275,614.2109 C442.068,616.2479 438.374,621.3029 438.374,627.2329 C438.374,633.1049 441.995,638.1239 447.123,640.1989 L447.123,650.3869 C447.123,651.7779 447.676,653.1109 448.659,654.0939 L462.108,667.5459 C463.091,668.5289 464.425,669.0819 465.815,669.0819 L529.776,669.0819 L566.354,705.6579 C567.337,706.6419 568.671,707.1949 570.061,707.1949 L747.548,707.1949 L764.692,724.5149 C764.065,726.1049 763.709,727.8319 763.709,729.6429 C763.709,737.3709 769.973,743.6349 777.7,743.6349 C785.429,743.6349 791.692,737.3709 791.692,729.6429 C791.692,721.9169 785.429,715.6519 777.7,715.6519 C775.637,715.6519 773.684,716.1099 771.921,716.9119 Z" id="Fill-185"></path>
                <path d="M379.452,630.7388 C377.519,630.7388 375.946,629.1658 375.946,627.2328 C375.946,625.2998 377.519,623.7258 379.452,623.7258 C381.386,623.7258 382.958,625.2998 382.958,627.2328 C382.958,629.1658 381.386,630.7388 379.452,630.7388 L379.452,630.7388 Z M288.025,819.5378 C286.092,819.5378 284.519,817.9658 284.519,816.0318 C284.519,814.0978 286.092,812.5258 288.025,812.5258 C289.958,812.5258 291.531,814.0978 291.531,816.0318 C291.531,817.9658 289.958,819.5378 288.025,819.5378 L288.025,819.5378 Z M353.957,362.2078 L353.957,313.4518 L391.558,242.9288 C392.54,241.9478 393.092,240.6168 393.092,239.2298 L393.092,207.6328 C399.585,205.0218 403.243,197.9108 401.362,190.9928 C399.668,184.7648 394.026,180.6688 387.869,180.6688 C386.653,180.6688 385.418,180.8288 384.189,181.1628 C376.732,183.1908 372.331,190.8798 374.359,198.3358 C375.553,202.7258 378.713,206.0488 382.629,207.6328 L382.629,237.0628 L353.957,294.6568 L355.957,141.0998 L394.047,62.4758 L411.458,27.0638 C413.534,28.2458 415.906,28.9088 418.366,28.9088 C419.581,28.9088 420.816,28.7488 422.046,28.4148 C429.503,26.3868 433.903,18.6978 431.875,11.2418 C430.181,5.0138 424.54,0.9178 418.383,0.9178 C417.167,0.9178 415.931,1.0778 414.702,1.4118 C407.246,3.4398 402.845,11.1288 404.873,18.5848 C404.89,18.6458 404.912,18.7028 404.93,18.7628 L385.097,56.5968 C384.112,57.5798 383.559,58.9138 383.559,60.3038 L353.957,128.2708 L323.484,84.5908 C322.501,83.6068 321.167,83.0548 319.777,83.0548 L313.835,83.0548 L283.641,41.8628 C284.87,39.0448 285.189,35.8078 284.32,32.6108 C282.626,26.3838 276.984,22.2878 270.827,22.2878 C269.611,22.2878 268.376,22.4468 267.147,22.7818 C259.69,24.8098 255.289,32.4978 257.317,39.9548 C259.011,46.1818 264.653,50.2778 270.81,50.2778 C272.025,50.2778 273.261,50.1188 274.49,49.7838 C275.067,49.6278 275.618,49.4258 276.156,49.2038 L307.956,92.0048 C308.939,92.9888 310.273,93.5408 311.663,93.5408 L317.605,93.5408 L344.494,137.2448 L343.494,197.0268 L307.095,160.6268 C308.219,157.8788 308.495,154.7588 307.656,151.6718 C305.962,145.4448 300.32,141.3478 294.162,141.3478 C292.947,141.3478 291.712,141.5078 290.482,141.8428 C283.026,143.8698 278.625,151.5588 280.653,159.0148 C282.347,165.2428 287.989,169.3388 294.146,169.3388 C295.361,169.3388 296.597,169.1788 297.826,168.8448 C298.506,168.6598 299.151,168.4128 299.778,168.1378 L343.494,211.8548 L343.494,257.1048 L301.203,214.8138 C300.221,213.8308 298.887,213.2788 297.496,213.2788 L226.393,168.9508 L226.393,153.1128 C231.868,150.0508 234.785,143.5718 233.065,137.2448 C231.371,131.0178 225.729,126.9218 219.572,126.9218 C218.356,126.9218 217.121,127.0808 215.892,127.4158 C208.435,129.4438 204.035,137.1318 206.062,144.5888 C207.412,149.5538 211.276,153.1568 215.907,154.4158 L215.907,171.1228 C215.907,172.5128 216.459,173.8468 217.443,174.8298 L295.324,223.7638 L343.494,271.9328 L343.494,323.3138 L334.706,314.5248 L297.757,264.0448 C296.775,263.0608 295.441,262.5088 294.05,262.5088 L260.654,262.5088 L246.259,248.1138 C248.096,244.9818 248.726,241.1448 247.698,237.3648 C246.004,231.1378 240.362,227.0418 234.205,227.0418 C232.989,227.0418 231.754,227.2008 230.525,227.5348 C223.068,229.5628 218.667,237.2518 220.695,244.7088 C222.389,250.9358 228.031,255.0318 234.188,255.0318 C235.4,255.0318 236.632,254.8728 237.858,254.5408 L254.775,271.4588 C255.758,272.4418 257.092,272.9938 258.482,272.9938 L291.878,272.9938 L324.22,316.6968 C324.22,318.0868 324.772,319.4208 325.756,320.4038 L343.494,338.1418 L343.494,364.3748 C343.494,365.7618 344.046,367.0928 345.027,368.0728 L383.526,406.5718 L383.526,599.2868 L375.329,607.4838 C374.349,608.4648 373.797,609.7948 373.797,611.1818 L373.797,614.4408 C368.889,616.6138 365.46,621.5188 365.46,627.2328 C365.46,632.4568 368.329,637.0048 372.572,639.4078 L372.572,645.3238 L342.516,675.3808 C341.533,676.3628 340.98,677.6968 340.98,679.0878 L340.98,699.9648 L309.963,730.9838 C308.979,731.9668 308.427,733.3008 308.427,734.6898 L308.427,787.4768 L292.954,802.9498 C291.419,802.3718 289.763,802.0398 288.025,802.0398 C280.298,802.0398 274.033,808.3038 274.033,816.0318 C274.033,823.7598 280.298,830.0228 288.025,830.0228 C295.752,830.0228 302.016,823.7598 302.016,816.0318 C302.016,813.8938 301.523,811.8778 300.666,810.0658 L317.377,793.3558 C318.36,792.3738 318.913,791.0398 318.913,789.6488 L318.913,736.8618 L349.93,705.8428 C350.913,704.8608 351.466,703.5268 351.466,702.1358 L351.466,681.2588 L381.522,651.2028 C382.506,650.2198 383.059,648.8858 383.059,647.4958 L383.059,640.7378 C389.035,639.1448 393.444,633.7108 393.444,627.2328 C393.444,621.1968 389.615,616.0698 384.26,614.1068 L384.26,613.3478 L392.456,605.1508 C393.436,604.1708 393.988,602.8408 393.988,601.4528 L393.988,404.4058 C393.988,403.0188 393.436,401.6878 392.455,400.7078 L353.957,362.2078 Z" id="Fill-187"></path>
                <path d="M14.2855,730.7359 C12.3525,730.7359 10.7795,729.1629 10.7795,727.2299 C10.7795,725.2969 12.3525,723.7229 14.2855,723.7229 C16.2185,723.7229 17.7915,725.2969 17.7915,727.2299 C17.7915,729.1629 16.2185,730.7359 14.2855,730.7359 M342.9955,623.7259 C344.9285,623.7259 346.5015,625.2989 346.5015,627.2329 C346.5015,629.1659 344.9285,630.7389 342.9955,630.7389 C341.0625,630.7389 339.4895,629.1659 339.4895,627.2329 C339.4895,625.2989 341.0625,623.7259 342.9955,623.7259 M346.7025,654.1139 C347.6865,653.1319 348.2395,651.7979 348.2395,650.4079 L348.2395,640.1989 C353.3665,638.1229 356.9875,633.1039 356.9875,627.2329 C356.9875,621.7559 353.8325,617.0269 349.2485,614.7289 L349.2485,613.6169 L375.4895,587.3759 C376.4695,586.3949 377.0215,585.0639 377.0215,583.6759 L376.9995,475.8769 C376.9985,474.4889 376.4475,473.1599 375.4665,472.1789 L327.4905,424.2029 L327.4905,383.2649 C327.4905,381.8749 326.9375,380.5409 325.9535,379.5579 L307.1325,338.1259 C313.8165,335.6179 317.6175,328.3899 315.7065,321.3629 C314.0135,315.1359 308.3715,311.0399 302.2135,311.0399 C300.9985,311.0399 299.7635,311.1999 298.5335,311.5339 C291.0775,313.5619 286.6765,321.2509 288.7035,328.7069 C289.8645,332.9749 292.8815,336.2409 296.6465,337.8739 L317.0035,385.4369 L317.0035,413.7159 L284.2338,382.2999 L192.2875,349.4189 C193.8605,346.4059 194.3595,342.8219 193.3975,339.2829 C191.7035,333.0559 186.0615,328.9599 179.9045,328.9599 C178.6885,328.9599 177.4525,329.1199 176.2235,329.4539 C168.7675,331.4819 164.3665,339.1709 166.3945,346.6269 C168.0875,352.8549 173.7295,356.9499 179.8875,356.9499 C181.1025,356.9499 182.3385,356.7909 183.5675,356.4569 C183.8065,356.3919 184.0345,356.3039 184.2675,356.2279 L281.2805,392.7869 L362.576971,472.1789 L271.4315,436.2399 C269.2755,430.9239 264.1025,427.5139 258.4905,427.5139 C257.2755,427.5139 256.0395,427.6739 254.8105,428.0079 C247.3535,430.0369 242.9525,437.7249 244.9805,445.1809 C246.6745,451.4089 252.3165,455.5049 258.4735,455.5049 C259.6895,455.5049 260.9255,455.3449 262.1545,455.0109 C266.5495,453.8159 269.8685,450.6479 271.4495,446.7259 L366.5375,483.323999 L366.5375,496.9449 L366.5585,581.5109 L340.3185,607.7529 C339.3375,608.7329 338.7855,610.0639 338.7855,611.4509 L338.7855,613.8869 C333.1165,615.6739 329.0035,620.9719 329.0035,627.2329 C329.0035,633.1049 332.6245,638.1239 337.7525,640.1989 L337.7525,648.2359 L326.8685,659.1179 L239.1355,659.1179 C237.7445,659.1179 236.4105,659.6709 235.4285,660.6549 L209.5915,686.4899 L49.3555,686.4899 C47.9655,686.4899 46.6315,687.0429 45.6485,688.0269 L19.4435,714.2319 C17.8455,713.5969 16.1095,713.2379 14.2855,713.2379 C6.5585,713.2379 0.2935,719.5029 0.2935,727.2299 C0.2935,734.9579 6.5585,741.2209 14.2855,741.2209 C22.0135,741.2209 28.2775,734.9579 28.2775,727.2299 C28.2775,725.1749 27.8235,723.2309 27.0285,721.4739 L51.5275,696.9769 L211.7635,696.9769 C213.1545,696.9769 214.4885,696.4239 215.4705,695.4399 L241.3065,669.6049 L329.0405,669.6049 C330.4315,669.6049 331.7645,669.0519 332.7475,668.0689 L346.7025,654.1139 Z" id="Fill-189"></path>
            </g>
        </g>
        <circle id="Oval" fill="#1D2021" cx="591" cy="496" r="12"></circle>
        <circle id="Oval-Copy" fill="#1D2021" cx="632" cy="493" r="12"></circle>
        <circle id="Oval-Copy-12" fill="#1D2021" cx="698" cy="517" r="12"></circle>
        <circle id="Oval-Copy-13" fill="#1D2021" cx="717" cy="496" r="12"></circle>
        <circle id="Oval-Copy-14" fill="#1D2021" cx="660" cy="475" r="12"></circle>
        <circle id="Oval-Copy-15" fill="#1D2021" cx="660" cy="439" r="12"></circle>
        <circle id="Oval-Copy-16" fill="#1D2021" cx="608" cy="378" r="12"></circle>
        <circle id="Oval-Copy-17" fill="#1D2021" cx="570" cy="375" r="12"></circle>
        <circle id="Oval-Copy-18" fill="#1D2021" cx="608" cy="323" r="12"></circle>
        <circle id="Oval-Copy-26" fill="#1D2021" cx="736" cy="291" r="12"></circle>
        <circle id="Oval-Copy-27" fill="#1D2021" cx="736" cy="328" r="12"></circle>
        <circle id="Oval-Copy-28" fill="#1D2021" cx="755" cy="347" r="12"></circle>
        <circle id="Oval-Copy-29" fill="#1D2021" cx="757" cy="308" r="12"></circle>
        <circle id="Oval-Copy-30" fill="#1D2021" cx="805" cy="262" r="12"></circle>
        <circle id="Oval-Copy-31" fill="#1D2021" cx="847" cy="308" r="12"></circle>
        <circle id="Oval-Copy-32" fill="#1D2021" cx="780" cy="381" r="12"></circle>
        <circle id="Oval-Copy-33" fill="#1D2021" cx="757" cy="409" r="12"></circle>
        <circle id="Oval-Copy-34" fill="#1D2021" cx="757" cy="460" r="12"></circle>
        <circle id="Oval-Copy-35" fill="#1D2021" cx="738" cy="475" r="12"></circle>
        <circle id="Oval-Copy-19" fill="#1D2021" cx="533" cy="279" r="12"></circle>
        <circle id="Oval-Copy-23" fill="#1D2021" cx="624" cy="193" r="12"></circle>
        <circle id="Oval-Copy-24" fill="#1D2021" cx="663" cy="241" r="12"></circle>
        <circle id="Oval-Copy-25" fill="#1D2021" cx="700" cy="169" r="12"></circle>
        <circle id="Oval-Copy-20" fill="#1D2021" cx="657" cy="311" r="12"></circle>
        <circle id="Oval-Copy-21" fill="#1D2021" cx="658" cy="374" r="12"></circle>
        <circle id="Oval-Copy-22" fill="#1D2021" cx="698" cy="351" r="12"></circle>
        <circle id="Oval-Copy-2" fill="#1D2021" cx="632" cy="530" r="12"></circle>
        <circle id="Oval-Copy-3" fill="#1D2021" cx="681" cy="584" r="12"></circle>
        <circle id="Oval-Copy-4" fill="#1D2021" cx="735" cy="584" r="12"></circle>
        <circle id="Oval-Copy-5" fill="#1D2021" cx="759" cy="560" r="12"></circle>
        <circle id="Oval-Copy-6" fill="#1D2021" cx="786" cy="536" r="12"></circle>
        <circle id="Oval-Copy-7" fill="#1D2021" cx="755" cy="517" r="12"></circle>
        <circle id="Oval-Copy-8" fill="#1D2021" cx="798" cy="472" r="12"></circle>
        <circle id="Oval-Copy-9" fill="#1D2021" cx="871" cy="500" r="12"></circle>
        <circle id="Oval-Copy-11" fill="#1D2021" cx="916" cy="415" r="12"></circle>
        <circle id="Oval-Copy-10" fill="#1D2021" cx="822" cy="500" r="12"></circle>
    </g>
</svg>